# xmcd
#
# Track frame offsets:
#	150
#	16581
#	34161
#	50503
#	69686
#	85189
#	95838
#	112409
#	129989
#	146412
#	165716
#	181070
#
# Disc length: 2551 seconds
#
# Revision: 1
# Processed by: cddbd v1.5.2PL0 Copyright (c) Steve Scherf et al.
# Submitted via: audiograbber 1.83.01
#
DISCID=a109f50c
DTITLE=Various Artist - CB20355
DYEAR=1900
DGENRE=
TTITLE0=Willie Nelson - Living In The Promised Land (vocal)
TTITLE1=Waylon Jennings - America (vocal)
TTITLE2=Charlie Daniels - In America (vocal)
TTITLE3=Moe Bandy - Americana (vocal)
TTITLE4=Lee Greenwood - God Bless The USA  (vocal)
TTITLE5=Randy Travis - Heroes And Friends (vocal)
TTITLE6=Willie Nelson - Living In The Promised Land 
TTITLE7=Waylon Jennings - America 
TTITLE8=Charlie Daniels - In America 
TTITLE9=Moe Bandy - Americana
TTITLE10=Lee Greenwood - God Bless The USA 
TTITLE11=Randy Travis - Heroes And Friends 
EXTD=
EXTT0=
EXTT1=
EXTT2=
EXTT3=
EXTT4=
EXTT5=
EXTT6=
EXTT7=
EXTT8=
EXTT9=
EXTT10=
EXTT11=
PLAYORDER=
